<?xml version="1.0"?>
<svg xmlns="http://www.w3.org/2000/svg" xmlns:xlink="http://www.w3.org/1999/xlink" id="Layer_1" data-name="Layer 1" viewBox="0 0 512 512" width="512" height="512"><defs><linearGradient id="linear-gradient" x1="256" y1="24.712" x2="256" y2="481.004" gradientUnits="userSpaceOnUse"><stop offset="0" stop-color="#00efd1"/><stop offset="1" stop-color="#00acea"/></linearGradient><linearGradient id="linear-gradient-2" x1="234.285" y1="24.712" x2="234.285" y2="481.004" xlink:href="#linear-gradient"/></defs><title>Image</title><path d="M467,171a8,8,0,0,0-8-8H53a8,8,0,0,0-8,8V462a8,8,0,0,0,8,8H459a8,8,0,0,0,8-8Zm-16,8V358.424L342.437,281.453a7.935,7.935,0,0,0-10.186.822L250.915,362.24,156.4,316.171a7.809,7.809,0,0,0-7.421.271L61,367.527V179ZM61,386.024l92.325-53.6,85.552,41.89L157.927,454H61ZM180.752,454l157.9-155.451L451,378.031V454Z" style="fill:url(#linear-gradient)"/><path d="M234.285,306.09a39.844,39.844,0,1,0-39.844-39.844A39.889,39.889,0,0,0,234.285,306.09Zm0-63.688a23.844,23.844,0,1,1-23.844,23.844A23.871,23.871,0,0,1,234.285,242.4Z" style="fill:url(#linear-gradient-2)"/><path d="M72.816,139H439.184a8,8,0,0,0,0-16H72.816a8,8,0,0,0,0,16Z" style="fill:url(#linear-gradient)"/><path d="M92.816,99H419.184a8,8,0,0,0,0-16H92.816a8,8,0,0,0,0,16Z" style="fill:url(#linear-gradient)"/><path d="M112.816,58H399.184a8,8,0,0,0,0-16H112.816a8,8,0,0,0,0,16Z" style="fill:url(#linear-gradient)"/></svg>
