<?xml version="1.0" encoding="iso-8859-1"?>
<!-- Generator: Adobe Illustrator 19.0.0, SVG Export Plug-In . SVG Version: 6.00 Build 0)  -->
<svg version="1.1" id="Layer_1" xmlns="http://www.w3.org/2000/svg" xmlns:xlink="http://www.w3.org/1999/xlink" x="0px" y="0px"
	 viewBox="0 0 512.003 512.003" style="enable-background:new 0 0 512.003 512.003;" xml:space="preserve">
<circle style="fill:#FDDF6D;" cx="256.001" cy="256.001" r="256.001"/>
<path style="fill:#FCC56B;" d="M310.859,474.208c-141.385,0-256-114.615-256-256c0-75.537,32.722-143.422,84.757-190.281
	C56.738,70.303,0,156.525,0,256c0,141.385,114.615,256,256,256c65.849,0,125.883-24.87,171.243-65.718
	C392.325,464.135,352.77,474.208,310.859,474.208z"/>
<g>
	<circle style="fill:#7F184C;" cx="219.398" cy="211.927" r="31.243"/>
	<circle style="fill:#7F184C;" cx="395.305" cy="211.927" r="31.243"/>
	<path style="fill:#7F184C;" d="M369.694,430.737c-3.656,0.001-7.203-1.927-9.108-5.349c-9.763-17.527-28.276-28.415-48.313-28.415
		c-19.528,0-38.25,10.998-48.865,28.702c-2.958,4.932-9.355,6.533-14.287,3.577c-4.934-2.958-6.535-9.354-3.577-14.287
		c14.357-23.945,39.926-38.821,66.73-38.821c27.589,0,53.073,14.986,66.511,39.108c2.799,5.024,0.994,11.367-4.03,14.165
		C373.149,430.313,371.409,430.737,369.694,430.737z"/>
</g>
<path style="fill:#3FA9F5;" d="M249.003,345.027c0,17.825-14.45,32.275-32.275,32.275s-32.275-14.45-32.275-32.275
	c0-17.825,32.275-64.31,32.275-64.31S249.003,327.203,249.003,345.027z"/>
<ellipse transform="matrix(0.2723 -0.9622 0.9622 0.2723 156.5499 349.394)" style="fill:#FCEB88;" cx="309.272" cy="71.196" rx="29.854" ry="53.46"/>
<g>
</g>
<g>
</g>
<g>
</g>
<g>
</g>
<g>
</g>
<g>
</g>
<g>
</g>
<g>
</g>
<g>
</g>
<g>
</g>
<g>
</g>
<g>
</g>
<g>
</g>
<g>
</g>
<g>
</g>
</svg>
